<svg width="144" height="28" viewBox="0 0 144 28" fill="none" xmlns="http://www.w3.org/2000/svg">
<g clip-path="url(#clip0_5997_84950)">
<path d="M33.2685 8.74582C34.9417 8.74582 36.2252 9.07136 37.1191 9.72244C38.0245 10.3619 38.4772 11.3211 38.4772 12.6C38.4772 13.2975 38.3511 13.8963 38.099 14.3962C37.8583 14.8845 37.5031 15.2856 37.0332 15.5996C36.5748 15.9018 36.0132 16.1227 35.3485 16.2623C34.6838 16.4018 33.9332 16.4715 33.0966 16.4715H31.7729V20.9535H30.1055V9.0423C30.5753 8.92603 31.0968 8.85046 31.6698 8.81558C32.2543 8.76908 32.7872 8.74582 33.2685 8.74582ZM33.406 10.2282C32.6955 10.2282 32.1511 10.2456 31.7729 10.2805V15.0241H33.0278C33.6008 15.0241 34.1166 14.9892 34.575 14.9194C35.0334 14.838 35.4173 14.7101 35.7267 14.5357C36.0476 14.3497 36.294 14.0998 36.4659 13.7858C36.6378 13.4719 36.7238 13.0708 36.7238 12.5825C36.7238 12.1175 36.6321 11.7338 36.4487 11.4315C36.2768 11.1292 36.0362 10.8909 35.7267 10.7165C35.4288 10.5305 35.0792 10.4026 34.6781 10.3328C34.277 10.2631 33.853 10.2282 33.406 10.2282Z" fill="url(#paint0_linear_5997_84950)"/>
<path d="M46.3916 15.896C46.575 16.1286 46.8042 16.4367 47.0792 16.8203C47.3657 17.1924 47.658 17.6109 47.9559 18.076C48.2539 18.5294 48.5461 19.0061 48.8326 19.506C49.1306 20.0059 49.3827 20.4884 49.589 20.9535H47.7668C47.5376 20.5117 47.2855 20.0641 47.0105 19.6106C46.7469 19.1572 46.4776 18.727 46.2025 18.3201C45.9275 17.9016 45.6524 17.5121 45.3774 17.1517C45.1138 16.7913 44.8731 16.4773 44.6554 16.2099C44.5064 16.2216 44.3517 16.2274 44.1912 16.2274C44.0423 16.2274 43.8875 16.2274 43.7271 16.2274H42.2315V20.9535H40.5641V9.0423C41.0339 8.92603 41.5554 8.85046 42.1284 8.81558C42.7129 8.76908 43.2458 8.74582 43.7271 8.74582C45.4003 8.74582 46.6724 9.06555 47.5434 9.705C48.4258 10.3444 48.867 11.2978 48.867 12.5651C48.867 13.3673 48.655 14.0533 48.231 14.6229C47.8184 15.1926 47.2053 15.617 46.3916 15.896ZM43.8646 10.2282C43.1541 10.2282 42.6097 10.2456 42.2315 10.2805V14.8322H43.4177C43.9907 14.8322 44.5064 14.8032 44.9648 14.745C45.4232 14.6869 45.8071 14.5764 46.1166 14.4137C46.4375 14.2509 46.6839 14.0242 46.8558 13.7335C47.0277 13.4312 47.1136 13.0359 47.1136 12.5476C47.1136 12.0942 47.0277 11.7164 46.8558 11.4141C46.6839 11.1118 46.4489 10.8734 46.1509 10.6991C45.8644 10.5247 45.5206 10.4026 45.1195 10.3328C44.7299 10.2631 44.3116 10.2282 43.8646 10.2282Z" fill="url(#paint1_linear_5997_84950)"/>
<path d="M51.3752 8.8679H53.0427V20.9535H51.3752V8.8679Z" fill="url(#paint2_linear_5997_84950)"/>
<path d="M65.6184 8.8679C65.1829 10.1468 64.7646 11.3327 64.3635 12.4256C63.9738 13.5068 63.5899 14.5357 63.2117 15.5124C62.8335 16.489 62.4554 17.4249 62.0772 18.3201C61.7104 19.2037 61.3323 20.0815 60.9426 20.9535H59.3783C58.9886 20.0815 58.6047 19.2037 58.2265 18.3201C57.8598 17.4249 57.4816 16.489 57.092 15.5124C56.7138 14.5357 56.3241 13.5068 55.923 12.4256C55.5219 11.3327 55.1093 10.1468 54.6853 8.8679H56.5247C57.1435 10.7049 57.7509 12.4721 58.3469 14.1695C58.9428 15.867 59.5559 17.4598 60.1862 18.9479C60.8165 17.4714 61.4297 15.8844 62.0256 14.187C62.6215 12.4779 63.2232 10.7049 63.8306 8.8679H65.6184Z" fill="url(#paint3_linear_5997_84950)"/>
<path d="M74.1745 20.9535C73.9797 20.4303 73.7963 19.9187 73.6244 19.4188C73.4525 18.9073 73.2749 18.3899 73.0915 17.8667H67.6937L66.6107 20.9535H64.8745C65.3329 19.6746 65.7627 18.4945 66.1638 17.4133C66.5649 16.3204 66.9545 15.2856 67.3327 14.309C67.7224 13.3324 68.1063 12.4023 68.4845 11.5187C68.8627 10.6235 69.2581 9.73988 69.6706 8.8679H71.2006C71.6131 9.73988 72.0085 10.6235 72.3867 11.5187C72.7649 12.4023 73.1431 13.3324 73.5213 14.309C73.9109 15.2856 74.3063 16.3204 74.7074 17.4133C75.1085 18.4945 75.5383 19.6746 75.9967 20.9535H74.1745ZM72.6102 16.4715C72.2435 15.46 71.8767 14.4834 71.51 13.5417C71.1547 12.5883 70.7823 11.6757 70.3926 10.8037C69.9915 11.6757 69.6076 12.5883 69.2409 13.5417C68.8856 14.4834 68.5303 15.46 68.1751 16.4715H72.6102Z" fill="url(#paint4_linear_5997_84950)"/>
<path d="M82.4178 21.2151C81.5812 21.2151 80.8191 21.0756 80.1315 20.7965C79.4439 20.5175 78.8537 20.1106 78.3609 19.5758C77.8681 19.041 77.4842 18.3841 77.2091 17.6051C76.9456 16.8145 76.8138 15.9135 76.8138 14.902C76.8138 13.8905 76.9627 12.9953 77.2607 12.2163C77.5701 11.4257 77.9827 10.763 78.4984 10.2282C79.0141 9.69337 79.6158 9.28645 80.3034 9.00742C80.991 8.72838 81.7245 8.58887 82.5038 8.58887C82.9966 8.58887 83.4378 8.62375 83.8274 8.69351C84.2285 8.76326 84.5724 8.84465 84.8589 8.93766C85.1568 9.03067 85.3975 9.12368 85.5809 9.21669C85.7642 9.3097 85.8903 9.37946 85.959 9.42596L85.4777 10.8211C85.3746 10.7514 85.2256 10.6758 85.0308 10.5944C84.8359 10.513 84.6125 10.4316 84.3603 10.3503C84.1197 10.2689 83.8504 10.2049 83.5524 10.1584C83.2659 10.1003 82.9737 10.0712 82.6757 10.0712C82.0454 10.0712 81.4781 10.1817 80.9738 10.4026C80.4696 10.6235 80.0398 10.9432 79.6846 11.3618C79.3293 11.7803 79.0542 12.2919 78.8594 12.8964C78.6761 13.4894 78.5844 14.1579 78.5844 14.902C78.5844 15.6228 78.6646 16.2797 78.825 16.8726C78.9969 17.4656 79.2491 17.9771 79.5814 18.4073C79.9138 18.8259 80.3263 19.1514 80.8191 19.3839C81.3234 19.6165 81.9078 19.7327 82.5725 19.7327C83.3404 19.7327 83.9764 19.6513 84.4807 19.4886C84.9849 19.3258 85.3631 19.1805 85.6152 19.0526L86.045 20.4477C85.9648 20.5059 85.8215 20.5814 85.6152 20.6745C85.409 20.7558 85.1511 20.8372 84.8417 20.9186C84.5322 21 84.1712 21.0698 83.7587 21.1279C83.3461 21.186 82.8992 21.2151 82.4178 21.2151Z" fill="url(#paint5_linear_5997_84950)"/>
<path d="M91.077 20.9535V16.1053C90.2862 14.8613 89.5413 13.6347 88.8422 12.4256C88.1431 11.2164 87.4842 10.0305 86.8653 8.8679H88.825C89.2605 9.82126 89.7476 10.7921 90.2862 11.7803C90.8248 12.7569 91.3806 13.6986 91.9537 14.6055C92.5152 13.6986 93.0653 12.7569 93.6039 11.7803C94.1426 10.7921 94.6354 9.82126 95.0823 8.8679H96.9389C96.32 10.0305 95.6611 11.2164 94.962 12.4256C94.2629 13.6231 93.5237 14.838 92.7444 16.0704V20.9535H91.077Z" fill="url(#paint6_linear_5997_84950)"/>
<path d="M101.282 19.7502C103.024 19.7502 103.895 19.1456 103.895 17.9365C103.895 17.5644 103.815 17.2505 103.654 16.9947C103.505 16.7273 103.299 16.5006 103.036 16.3146C102.772 16.1169 102.468 15.9483 102.124 15.8088C101.792 15.6693 101.437 15.5298 101.059 15.3903C100.623 15.2391 100.211 15.0706 99.821 14.8845C99.4313 14.6869 99.0932 14.4602 98.8067 14.2044C98.5202 13.937 98.291 13.6231 98.1191 13.2627C97.9587 12.9022 97.8784 12.4663 97.8784 11.9547C97.8784 10.8967 98.2337 10.0712 98.9442 9.47828C99.6548 8.88534 100.635 8.58887 101.884 8.58887C102.606 8.58887 103.259 8.67025 103.844 8.83302C104.439 8.98416 104.875 9.15275 105.15 9.33877L104.617 10.7165C104.376 10.5653 104.015 10.42 103.534 10.2805C103.064 10.1294 102.514 10.0538 101.884 10.0538C101.563 10.0538 101.265 10.0887 100.99 10.1584C100.715 10.2282 100.474 10.3328 100.268 10.4723C100.062 10.6119 99.8954 10.7921 99.7694 11.013C99.6548 11.2222 99.5975 11.4722 99.5975 11.7629C99.5975 12.0884 99.6605 12.3616 99.7866 12.5825C99.9126 12.8034 100.09 13.0011 100.319 13.1755C100.549 13.3382 100.812 13.4894 101.11 13.6289C101.42 13.7684 101.758 13.9079 102.124 14.0474C102.64 14.2567 103.11 14.466 103.534 14.6753C103.97 14.8845 104.342 15.1345 104.651 15.4252C104.972 15.7158 105.219 16.0646 105.391 16.4715C105.563 16.8668 105.648 17.3493 105.648 17.919C105.648 18.977 105.265 19.7909 104.497 20.3605C103.74 20.9302 102.669 21.2151 101.282 21.2151C100.812 21.2151 100.377 21.1802 99.9757 21.1104C99.586 21.0523 99.2365 20.9826 98.927 20.9012C98.6176 20.8082 98.3483 20.7151 98.1191 20.6221C97.9014 20.5175 97.7295 20.4303 97.6034 20.3605L98.1019 18.9654C98.3655 19.1165 98.7666 19.2851 99.3052 19.4711C99.8439 19.6572 100.503 19.7502 101.282 19.7502Z" fill="url(#paint7_linear_5997_84950)"/>
<path d="M115.623 20.9535C115.428 20.4303 115.245 19.9187 115.073 19.4188C114.901 18.9073 114.723 18.3899 114.54 17.8667H109.142L108.059 20.9535H106.323C106.781 19.6746 107.211 18.4945 107.612 17.4133C108.013 16.3204 108.403 15.2856 108.781 14.309C109.171 13.3324 109.555 12.4023 109.933 11.5187C110.311 10.6235 110.706 9.73988 111.119 8.8679H112.649C113.061 9.73988 113.457 10.6235 113.835 11.5187C114.213 12.4023 114.591 13.3324 114.97 14.309C115.359 15.2856 115.755 16.3204 116.156 17.4133C116.557 18.4945 116.987 19.6746 117.445 20.9535H115.623ZM114.058 16.4715C113.692 15.46 113.325 14.4834 112.958 13.5417C112.603 12.5883 112.231 11.6757 111.841 10.8037C111.44 11.6757 111.056 12.5883 110.689 13.5417C110.334 14.4834 109.979 15.46 109.623 16.4715H114.058Z" fill="url(#paint8_linear_5997_84950)"/>
<path d="M119.062 20.9535V8.8679H126.248V10.3154H120.73V13.9602H125.629V15.3903H120.73V20.9535H119.062Z" fill="url(#paint9_linear_5997_84950)"/>
<path d="M128.295 20.9535V8.8679H135.567V10.3154H129.963V13.9079H134.948V15.3205H129.963V19.506H135.997V20.9535H128.295Z" fill="url(#paint10_linear_5997_84950)"/>
<path d="M143.328 9.99848C143.328 10.4715 143.251 10.8973 143.097 11.2757C142.944 11.6486 142.738 11.9658 142.48 12.2273C142.222 12.4833 141.923 12.6809 141.583 12.82C141.243 12.9536 140.886 13.0204 140.513 13.0204C140.14 13.0204 139.784 12.9536 139.444 12.82C139.104 12.6809 138.805 12.4833 138.547 12.2273C138.289 11.9658 138.083 11.6486 137.93 11.2757C137.776 10.8973 137.699 10.4715 137.699 9.99848C137.699 9.52543 137.776 9.10248 137.93 8.72961C138.083 8.35117 138.289 8.03395 138.547 7.77795C138.805 7.51639 139.104 7.31882 139.444 7.18526C139.784 7.04613 140.14 6.97656 140.513 6.97656C140.886 6.97656 141.243 7.04613 141.583 7.18526C141.923 7.31882 142.222 7.51639 142.48 7.77795C142.738 8.03395 142.944 8.35117 143.097 8.72961C143.251 9.10248 143.328 9.52543 143.328 9.99848ZM142.727 9.99848C142.727 9.63117 142.672 9.29726 142.562 8.99674C142.453 8.69065 142.299 8.42908 142.102 8.21204C141.91 7.995 141.676 7.82804 141.402 7.71117C141.133 7.5943 140.837 7.53587 140.513 7.53587C140.19 7.53587 139.891 7.5943 139.616 7.71117C139.348 7.82804 139.115 7.995 138.917 8.21204C138.725 8.42908 138.574 8.69065 138.464 8.99674C138.355 9.29726 138.3 9.63117 138.3 9.99848C138.3 10.3658 138.355 10.7025 138.464 11.0086C138.574 11.3091 138.725 11.5679 138.917 11.7849C139.115 12.002 139.348 12.1689 139.616 12.2858C139.891 12.4026 140.19 12.4611 140.513 12.4611C140.837 12.4611 141.133 12.4026 141.402 12.2858C141.676 12.1689 141.91 12.002 142.102 11.7849C142.299 11.5679 142.453 11.3091 142.562 11.0086C142.672 10.7025 142.727 10.3658 142.727 9.99848ZM141.328 11.6597C141.202 11.4093 141.059 11.1727 140.9 10.9501C140.747 10.722 140.612 10.5411 140.497 10.4075H139.946V11.6597H139.361V8.42074C139.51 8.38735 139.666 8.3623 139.83 8.34561C139.995 8.32891 140.146 8.32056 140.283 8.32056C140.755 8.32056 141.114 8.40961 141.361 8.58769C141.608 8.76578 141.731 9.03569 141.731 9.39743C141.731 9.60335 141.676 9.78421 141.567 9.94004C141.462 10.0903 141.312 10.2072 141.114 10.2906C141.169 10.3574 141.232 10.4409 141.303 10.5411C141.375 10.6413 141.449 10.7526 141.526 10.875C141.602 10.9974 141.679 11.1254 141.756 11.259C141.833 11.3926 141.901 11.5261 141.962 11.6597H141.328ZM139.946 9.92335H140.258C140.505 9.92335 140.711 9.88995 140.875 9.82317C141.04 9.75082 141.122 9.60613 141.122 9.38908C141.122 9.18317 141.043 9.04126 140.884 8.96335C140.73 8.87987 140.544 8.83813 140.324 8.83813C140.264 8.83813 140.201 8.84091 140.135 8.84648C140.069 8.84648 140.006 8.84926 139.946 8.85482V9.92335Z" fill="#EF2008"/>
<path d="M12.0922 1.9375C6.61321 1.94848 2.12124 6.3482 1.91797 11.9028H6.53574C6.76288 8.70712 9.1997 6.23809 12.1346 6.22987C15.0696 6.23795 17.5066 8.70702 17.7338 11.9028H22.2845C22.0809 6.3411 17.5782 1.93864 12.0922 1.9375Z" fill="url(#paint11_linear_5997_84950)"/>
<path d="M0.0273438 12.9126V15.7121H23.8809V12.9126H0.0273438ZM0.0273438 16.7217V19.4957H23.8809V16.7217H0.0273438ZM3.11532 20.5053C4.83224 23.7682 8.21177 25.9822 12.093 25.99C15.9811 25.9892 19.3692 23.7736 21.089 20.5053H3.11532Z" fill="url(#paint12_linear_5997_84950)"/>
</g>
<defs>
<linearGradient id="paint0_linear_5997_84950" x1="29.9643" y1="21.7016" x2="136.044" y2="21.7016" gradientUnits="userSpaceOnUse">
<stop stop-color="#EF2008"/>
<stop offset="1" stop-color="#FF6428"/>
</linearGradient>
<linearGradient id="paint1_linear_5997_84950" x1="29.9643" y1="21.7016" x2="136.044" y2="21.7016" gradientUnits="userSpaceOnUse">
<stop stop-color="#EF2008"/>
<stop offset="1" stop-color="#FF6428"/>
</linearGradient>
<linearGradient id="paint2_linear_5997_84950" x1="29.9643" y1="21.7016" x2="136.044" y2="21.7016" gradientUnits="userSpaceOnUse">
<stop stop-color="#EF2008"/>
<stop offset="1" stop-color="#FF6428"/>
</linearGradient>
<linearGradient id="paint3_linear_5997_84950" x1="29.9643" y1="21.7016" x2="136.044" y2="21.7016" gradientUnits="userSpaceOnUse">
<stop stop-color="#EF2008"/>
<stop offset="1" stop-color="#FF6428"/>
</linearGradient>
<linearGradient id="paint4_linear_5997_84950" x1="29.9643" y1="21.7016" x2="136.044" y2="21.7016" gradientUnits="userSpaceOnUse">
<stop stop-color="#EF2008"/>
<stop offset="1" stop-color="#FF6428"/>
</linearGradient>
<linearGradient id="paint5_linear_5997_84950" x1="29.9643" y1="21.7016" x2="136.044" y2="21.7016" gradientUnits="userSpaceOnUse">
<stop stop-color="#EF2008"/>
<stop offset="1" stop-color="#FF6428"/>
</linearGradient>
<linearGradient id="paint6_linear_5997_84950" x1="29.9643" y1="21.7016" x2="136.044" y2="21.7016" gradientUnits="userSpaceOnUse">
<stop stop-color="#EF2008"/>
<stop offset="1" stop-color="#FF6428"/>
</linearGradient>
<linearGradient id="paint7_linear_5997_84950" x1="29.9643" y1="21.7016" x2="136.044" y2="21.7016" gradientUnits="userSpaceOnUse">
<stop stop-color="#EF2008"/>
<stop offset="1" stop-color="#FF6428"/>
</linearGradient>
<linearGradient id="paint8_linear_5997_84950" x1="29.9643" y1="21.7016" x2="136.044" y2="21.7016" gradientUnits="userSpaceOnUse">
<stop stop-color="#EF2008"/>
<stop offset="1" stop-color="#FF6428"/>
</linearGradient>
<linearGradient id="paint9_linear_5997_84950" x1="29.9643" y1="21.7016" x2="136.044" y2="21.7016" gradientUnits="userSpaceOnUse">
<stop stop-color="#EF2008"/>
<stop offset="1" stop-color="#FF6428"/>
</linearGradient>
<linearGradient id="paint10_linear_5997_84950" x1="29.9643" y1="21.7016" x2="136.044" y2="21.7016" gradientUnits="userSpaceOnUse">
<stop stop-color="#EF2008"/>
<stop offset="1" stop-color="#FF6428"/>
</linearGradient>
<linearGradient id="paint11_linear_5997_84950" x1="1.89081" y1="12.2868" x2="22.2936" y2="12.2868" gradientUnits="userSpaceOnUse">
<stop stop-color="#EF2008"/>
<stop offset="1" stop-color="#FF6428"/>
</linearGradient>
<linearGradient id="paint12_linear_5997_84950" x1="0.0273515" y1="19.4513" x2="23.8809" y2="19.4513" gradientUnits="userSpaceOnUse">
<stop stop-color="#3771C8"/>
<stop offset="1" stop-color="#2CA089"/>
</linearGradient>
<clipPath id="clip0_5997_84950">
<rect width="144" height="24" fill="white" transform="translate(0 2)"/>
</clipPath>
</defs>
</svg>
